<svg width="221" height="136" viewBox="0 0 221 136" fill="none" xmlns="http://www.w3.org/2000/svg">
<path d="M171.862 136C158.128 136 146.662 133.2 137.462 127.6C128.262 122 121.862 113.933 118.262 103.4L149.862 89.8C150.528 96.8667 152.662 101.933 156.262 105C159.995 107.933 164.728 109.4 170.462 109.4C175.528 109.4 179.528 108 182.462 105.2C185.528 102.267 187.062 98.3333 187.062 93.4C187.062 89.9333 186.395 87.2 185.062 85.2C183.728 83.0667 181.795 81.5333 179.262 80.6C176.862 79.5333 173.928 79 170.462 79C168.728 79 167.128 79.0667 165.662 79.2C164.328 79.2 162.795 79.3333 161.062 79.6V57.2C161.995 57.3333 162.995 57.4667 164.062 57.6C165.128 57.6 166.328 57.6 167.662 57.6C173.528 57.6 177.795 56.3333 180.462 53.8C183.128 51.1333 184.462 47 184.462 41.4C184.462 36.6 183.128 32.9333 180.462 30.4C177.928 27.8667 174.395 26.6 169.862 26.6C164.928 26.6 160.862 28 157.662 30.8C154.595 33.6 152.595 38.2 151.662 44.6L121.462 34.2C122.928 26.8667 125.995 20.6667 130.662 15.6C135.328 10.5333 141.262 6.66666 148.462 4C155.662 1.33333 163.528 0 172.062 0C181.928 0 190.195 1.53334 196.862 4.6C203.662 7.53334 208.795 11.7333 212.262 17.2C215.862 22.5333 217.662 28.8667 217.662 36.2C217.662 41.9333 216.728 46.8 214.862 50.8C213.128 54.6667 210.928 57.8 208.262 60.2C205.595 62.4667 202.928 64.2 200.262 65.4C197.595 66.4667 195.395 67.1333 193.662 67.4V68C195.795 68 198.328 68.4667 201.262 69.4C204.328 70.3333 207.262 71.8667 210.062 74C212.995 76 215.395 78.8 217.262 82.4C219.262 86 220.262 90.4667 220.262 95.8C220.262 104.067 218.128 111.2 213.862 117.2C209.595 123.2 203.795 127.867 196.462 131.2C189.262 134.4 181.062 136 171.862 136Z" fill="url(#paint0_linear_178_241)"/>
<path d="M53.6 136C36 136 22.6667 130.333 13.6 119C4.53333 107.533 0 90.5333 0 68C0 45.4667 4.53333 28.5333 13.6 17.2C22.6667 5.73333 36 0 53.6 0C71.2 0 84.5333 5.73333 93.6 17.2C102.667 28.5333 107.2 45.4667 107.2 68C107.2 90.5333 102.667 107.533 93.6 119C84.5333 130.333 71.2 136 53.6 136ZM53.6 109.2C60.5333 109.2 65.5333 106.067 68.6 99.8C71.6667 93.4 73.2 82.8 73.2 68C73.2 53.2 71.6667 42.6667 68.6 36.4C65.5333 30 60.5333 26.8 53.6 26.8C46.6667 26.8 41.6667 30 38.6 36.4C35.5333 42.6667 34 53.2 34 68C34 82.8 35.5333 93.4 38.6 99.8C41.6667 106.067 46.6667 109.2 53.6 109.2Z" fill="url(#paint1_linear_178_241)"/>
<defs>
<linearGradient id="paint0_linear_178_241" x1="84.8173" y1="-42" x2="119.01" y2="190.883" gradientUnits="userSpaceOnUse">
<stop stop-color="#8205FF"/>
<stop offset="1" stop-color="#100E19"/>
</linearGradient>
<linearGradient id="paint1_linear_178_241" x1="84.8165" y1="-42" x2="119.009" y2="190.883" gradientUnits="userSpaceOnUse">
<stop stop-color="#8205FF"/>
<stop offset="1" stop-color="#100E19"/>
</linearGradient>
</defs>
</svg>
